# xmcd
#
# Track frame offsets:
#	150
#	14096
#	39168
#	58436
#	71935
#	91870
#	110603
#	133551
#	143828
#	159550
#	171220
#
# Disc length: 2661 seconds
#
# Revision: 1
# Processed by: cddbd v1.5.2PL0 Copyright (c) Steve Scherf et al.
# Submitted via: audiograbber 1.83.01
#
DISCID=9e0a630b
DTITLE=Gisbert zu Knyphausen - Hurra! Hurra! So nicht.
DYEAR=2010
DGENRE=Alternative
TTITLE0=Hey
TTITLE1=Seltsames Licht
TTITLE2=Grau, Grau, Grau
TTITLE3=Es ist still auf dem Rastplatz Krachgarten
TTITLE4=Ich bin Freund von Klischees und funkelnden Sternen
TTITLE5=Kräne
TTITLE6=Morsches Holz
TTITLE7=Melancholie
TTITLE8=Hurra! Hurra! So nicht.
TTITLE9=Dreh dich nicht um
TTITLE10=Nichts als Gespenster
EXTD=
EXTT0=
EXTT1=
EXTT2=
EXTT3=
EXTT4=
EXTT5=
EXTT6=
EXTT7=
EXTT8=
EXTT9=
EXTT10=
PLAYORDER=
